<svg xmlns="http://www.w3.org/2000/svg" width="1200" height="800" viewBox="0 0 1200 800"><defs><linearGradient id="bg" x2="1" y2="1"><stop stop-color="#f8e8d7"/><stop offset="1" stop-color="#e6c6a6"/></linearGradient><linearGradient id="screen" x2="0" y2="1"><stop stop-color="#3e3832"/><stop offset="1" stop-color="#171512"/></linearGradient><linearGradient id="metal" x2="0" y2="1"><stop stop-color="#b9afa2"/><stop offset="1" stop-color="#39332d"/></linearGradient><filter id="shadow"><feGaussianBlur stdDeviation="18"/></filter></defs><rect width="1200" height="800" fill="url(#bg)"/><path d="M0 540H1200V800H0z" fill="#d8ba9a" opacity=".35"/><path d="M-50 0L450 0 100 540H-50z" fill="#fff8ef" opacity=".35"/><ellipse cx="604" cy="687" rx="405" ry="26" fill="#57402b" opacity=".25" filter="url(#shadow)"/><g transform="translate(185 125) rotate(-3 410 260)"><rect width="829" height="525" rx="23" fill="url(#screen)"/><rect x="12" y="12" width="805" height="501" rx="15" fill="#e7e3db"/><circle cx="415" cy="7" r="2" fill="#979087"/><g transform="translate(23 24) scale(1.1)"><rect x="0" y="0" width="710" height="48" rx="7" fill="#fff"/><text x="23" y="31" fill="#65523f" font-family="Arial,sans-serif" font-size="23" font-weight="700">EDIT.</text><text x="264" y="28" fill="#51453d" font-family="Arial,sans-serif" font-size="10" font-weight="400">Collections     New arrivals     About</text><text x="614" y="28" fill="#51453d" font-family="Arial,sans-serif" font-size="10" font-weight="400">Search   Bag</text><rect x="15" y="60" width="680" height="171" rx="7" fill="#e5daca"/><text x="40" y="100" fill="#89705a" font-family="Arial,sans-serif" font-size="9" font-weight="700">THE EVERYDAY COLLECTION</text><text x="40" y="139" fill="#5e4b39" font-family="Arial,sans-serif" font-size="32" font-weight="700">Find your everyday.</text><text x="40" y="163" fill="#51453d" font-family="Arial,sans-serif" font-size="11" font-weight="400">Thoughtfully selected. Effortlessly yours.</text><rect x="40" y="184" width="100" height="27" rx="14" fill="#65513e"/><text x="58" y="202" fill="#fff" font-family="Arial,sans-serif" font-size="10" font-weight="400">Shop collection</text><path d="M518 102q0-32 30-32t30 32" fill="none" stroke="#8c6c4e" stroke-width="9"/><path d="M492 106h115l-10 96h-95z" fill="#af8a65"/><path d="M507 113h85l-7 72h-70z" fill="#b9936e"/><text x="21" y="260" fill="#5b493b" font-family="Arial,sans-serif" font-size="18" font-weight="700">Discover the collection</text><rect x="18" y="278" width="157" height="94" rx="7" fill="#eae3d9"/><rect x="70" y="302" width="52" height="51" rx="9" fill="#a18c75"/><text x="24" y="393" fill="#51453d" font-family="Arial,sans-serif" font-size="10" font-weight="400">Everyday essentials</text><rect x="191" y="278" width="157" height="94" rx="7" fill="#e4d5c3"/><rect x="243" y="302" width="52" height="51" rx="9" fill="#c4a887"/><text x="197" y="393" fill="#51453d" font-family="Arial,sans-serif" font-size="10" font-weight="400">New favourites</text><rect x="364" y="278" width="157" height="94" rx="7" fill="#ebe1d5"/><rect x="416" y="302" width="52" height="51" rx="9" fill="#b5a591"/><text x="370" y="393" fill="#51453d" font-family="Arial,sans-serif" font-size="10" font-weight="400">The classics</text><rect x="537" y="278" width="157" height="94" rx="7" fill="#dfd4c6"/><rect x="589" y="302" width="52" height="51" rx="9" fill="#9d8d78"/><text x="543" y="393" fill="#51453d" font-family="Arial,sans-serif" font-size="10" font-weight="400">Thoughtful details</text></g><path d="M-64 525H887l45 29q-11 19-63 23H-44q-48-4-66-23z" fill="url(#metal)"/><path d="M344 525h143l-11 9H356z" fill="#736b61"/><path d="M-106 552H928" stroke="#cec4b6" stroke-width="2"/></g><text x="29" y="769" fill="#785d46" font-size="12" font-family="Arial,sans-serif" letter-spacing="1.5">CONCEPT COVER · PROJECT ILLUSTRATION</text></svg>