<svg xmlns="http://www.w3.org/2000/svg" width="1200" height="800" viewBox="0 0 1200 800"><defs><linearGradient id="bg" x2="1" y2="1"><stop stop-color="#f8e8d7"/><stop offset="1" stop-color="#e6c6a6"/></linearGradient><linearGradient id="screen" x2="0" y2="1"><stop stop-color="#3e3832"/><stop offset="1" stop-color="#171512"/></linearGradient><linearGradient id="metal" x2="0" y2="1"><stop stop-color="#b9afa2"/><stop offset="1" stop-color="#39332d"/></linearGradient><filter id="shadow"><feGaussianBlur stdDeviation="18"/></filter></defs><rect width="1200" height="800" fill="url(#bg)"/><path d="M0 540H1200V800H0z" fill="#d8ba9a" opacity=".35"/><path d="M-50 0L450 0 100 540H-50z" fill="#fff8ef" opacity=".35"/><ellipse cx="604" cy="687" rx="405" ry="26" fill="#57402b" opacity=".25" filter="url(#shadow)"/><g transform="translate(185 125) rotate(-3 410 260)"><rect width="829" height="525" rx="23" fill="url(#screen)"/><rect x="12" y="12" width="805" height="501" rx="15" fill="#e7e3db"/><circle cx="415" cy="7" r="2" fill="#979087"/><g transform="translate(23 24) scale(1.1)"><rect x="0" y="0" width="710" height="47" rx="7" fill="#fff"/><text x="25" y="30" fill="#dd652b" font-family="Arial,sans-serif" font-size="22" font-weight="700">H</text><text x="52" y="28" fill="#6d4b36" font-family="Arial,sans-serif" font-size="11" font-weight="700">HALDIRAM D2C</text><text x="285" y="28" fill="#51453d" font-family="Arial,sans-serif" font-size="10" font-weight="400">Shop all     Categories     Our story</text><rect x="615" y="13" width="74" height="23" rx="11" fill="#f4e8da"/><text x="633" y="28" fill="#51453d" font-family="Arial,sans-serif" font-size="10" font-weight="400">My cart</text><rect x="15" y="58" width="680" height="159" rx="9" fill="#f4e3d0"/><text x="43" y="88" fill="#976942" font-family="Arial,sans-serif" font-size="9" font-weight="700">TRADITION, DELIVERED.</text><text x="43" y="124" fill="#443125" font-family="Arial,sans-serif" font-size="27" font-weight="700">A little taste of</text><text x="43" y="158" fill="#443125" font-family="Arial,sans-serif" font-size="27" font-weight="700">something familiar.</text><rect x="43" y="177" width="94" height="25" rx="13" fill="#df6c32"/><text x="59" y="194" fill="#fff" font-family="Arial,sans-serif" font-size="9" font-weight="400">Explore the range</text><circle cx="562" cy="134" r="60" fill="#e5b889"/><ellipse cx="559" cy="145" rx="65" ry="19" fill="#fff5e9"/><ellipse cx="559" cy="142" rx="51" ry="12" fill="#ca8e45"/><g fill="#d9a051"><circle cx="534" cy="131" r="11"/><circle cx="557" cy="129" r="12"/><circle cx="580" cy="131" r="11"/></g><text x="22" y="246" fill="#443125" font-family="Arial,sans-serif" font-size="18" font-weight="700">Explore categories</text><rect x="18" y="262" width="157" height="115" rx="7" fill="#faf0e3"/><circle cx="96" cy="302" r="27" fill="#dbaa74"/><text x="42" y="355" fill="#51453d" font-family="Arial,sans-serif" font-size="10" font-weight="400">Traditional sweets</text><rect x="191" y="262" width="157" height="115" rx="7" fill="#f5e7d6"/><circle cx="269" cy="302" r="27" fill="#dcbd89"/><text x="215" y="355" fill="#51453d" font-family="Arial,sans-serif" font-size="10" font-weight="400">Savoury favourites</text><rect x="364" y="262" width="157" height="115" rx="7" fill="#eee0cd"/><circle cx="442" cy="302" r="27" fill="#bb894f"/><text x="388" y="355" fill="#51453d" font-family="Arial,sans-serif" font-size="10" font-weight="400">Everyday snacks</text><rect x="537" y="262" width="157" height="115" rx="7" fill="#f6eadc"/><circle cx="615" cy="302" r="27" fill="#bd956a"/><text x="561" y="355" fill="#51453d" font-family="Arial,sans-serif" font-size="10" font-weight="400">Gift collections</text></g><path d="M-64 525H887l45 29q-11 19-63 23H-44q-48-4-66-23z" fill="url(#metal)"/><path d="M344 525h143l-11 9H356z" fill="#736b61"/><path d="M-106 552H928" stroke="#cec4b6" stroke-width="2"/></g><text x="29" y="769" fill="#785d46" font-size="12" font-family="Arial,sans-serif" letter-spacing="1.5">CONCEPT COVER · PROJECT ILLUSTRATION</text></svg>